name Walk4.mot
datacolumns 19
datarows 20
range 4.23300000 4.25200000
endheader

                time	   L_ground_force_vx	   L_ground_force_vy	   L_ground_force_vz	   L_ground_force_px	   L_ground_force_py	   L_ground_force_pz	   R_ground_force_vx	   R_ground_force_vy	   R_ground_force_vz	   R_ground_force_px	   R_ground_force_py	   R_ground_force_pz	   L_ground_torque_x	   L_ground_torque_y	   L_ground_torque_z	   R_ground_torque_x	   R_ground_torque_y	   R_ground_torque_z	
          4.23300000	          0.00000000	          0.00000000	          0.00000000	          0.00000000	          0.00000000	          0.00000000	         -7.22683562	        873.26722310	        -61.69387063	          0.25224221	          0.00000000	          0.17101868	          0.00000000	          0.00000000	          0.00000000	          0.00000000	          9.62943071	          0.00000000	
          4.23400000	          0.00000000	          0.00000000	          0.00000000	          0.00000000	          0.00000000	          0.00000000	         -6.96732236	        873.95053913	        -61.64425650	          0.25237223	          0.00000000	          0.17102171	          0.00000000	          0.00000000	          0.00000000	          0.00000000	          9.58475038	          0.00000000	
          4.23500000	          0.00000000	          0.00000000	          0.00000000	          0.00000000	          0.00000000	          0.00000000	         -6.71347009	        874.64986734	        -61.58156198	          0.25243263	          0.00000000	          0.17104596	          0.00000000	          0.00000000	          0.00000000	          0.00000000	          9.54343377	          0.00000000	
          4.23600000	          0.00000000	          0.00000000	          0.00000000	          0.00000000	          0.00000000	          0.00000000	         -6.45845795	        875.33261854	        -61.47537402	          0.25247318	          0.00000000	          0.17107044	          0.00000000	          0.00000000	          0.00000000	          0.00000000	          9.49970051	          0.00000000	
          4.23700000	          0.00000000	          0.00000000	          0.00000000	          0.00000000	          0.00000000	          0.00000000	         -6.19513678	        875.96797357	        -61.32638556	          0.25254968	          0.00000000	          0.17106932	          0.00000000	          0.00000000	          0.00000000	          0.00000000	          9.45012291	          0.00000000	
          4.23800000	          0.00000000	          0.00000000	          0.00000000	          0.00000000	          0.00000000	          0.00000000	         -5.91867196	        876.53380848	        -61.17317889	          0.25269595	          0.00000000	          0.17102986	          0.00000000	          0.00000000	          0.00000000	          0.00000000	          9.39711671	          0.00000000	
          4.23900000	          0.00000000	          0.00000000	          0.00000000	          0.00000000	          0.00000000	          0.00000000	         -5.62450588	        877.04602573	        -61.06802349	          0.25291353	          0.00000000	          0.17096161	          0.00000000	          0.00000000	          0.00000000	          0.00000000	          9.34423985	          0.00000000	
          4.24000000	          0.00000000	          0.00000000	          0.00000000	          0.00000000	          0.00000000	          0.00000000	         -5.31181351	        877.58023472	        -61.03987044	          0.25317477	          0.00000000	          0.17089248	          0.00000000	          0.00000000	          0.00000000	          0.00000000	          9.29115267	          0.00000000	
          4.24100000	          0.00000000	          0.00000000	          0.00000000	          0.00000000	          0.00000000	          0.00000000	         -4.98746528	        878.23226585	        -61.07835177	          0.25344056	          0.00000000	          0.17085042	          0.00000000	          0.00000000	          0.00000000	          0.00000000	          9.23714697	          0.00000000	
          4.24200000	          0.00000000	          0.00000000	          0.00000000	          0.00000000	          0.00000000	          0.00000000	         -4.65841036	        879.04513851	        -61.15154314	          0.25368110	          0.00000000	          0.17084475	          0.00000000	          0.00000000	          0.00000000	          0.00000000	          9.18564718	          0.00000000	
          4.24300000	          0.00000000	          0.00000000	          0.00000000	          0.00000000	          0.00000000	          0.00000000	         -4.32930799	        879.98352264	        -61.22941518	          0.25388376	          0.00000000	          0.17086908	          0.00000000	          0.00000000	          0.00000000	          0.00000000	          9.14098386	          0.00000000	
          4.24400000	          0.00000000	          0.00000000	          0.00000000	          0.00000000	          0.00000000	          0.00000000	         -4.00576131	        880.97127299	        -61.29642558	          0.25405296	          0.00000000	          0.17091451	          0.00000000	          0.00000000	          0.00000000	          0.00000000	          9.10397213	          0.00000000	
          4.24500000	          0.00000000	          0.00000000	          0.00000000	          0.00000000	          0.00000000	          0.00000000	         -3.68422191	        881.94092575	        -61.35241037	          0.25420202	          0.00000000	          0.17096592	          0.00000000	          0.00000000	          0.00000000	          0.00000000	          9.07194685	          0.00000000	
          4.24600000	          0.00000000	          0.00000000	          0.00000000	          0.00000000	          0.00000000	          0.00000000	         -3.34949137	        882.85454911	        -61.40032294	          0.25433780	          0.00000000	          0.17099751	          0.00000000	          0.00000000	          0.00000000	          0.00000000	          9.03999545	          0.00000000	
          4.24700000	          0.00000000	          0.00000000	          0.00000000	          0.00000000	          0.00000000	          0.00000000	         -2.99757672	        883.70688114	        -61.43929919	          0.25446119	          0.00000000	          0.17099003	          0.00000000	          0.00000000	          0.00000000	          0.00000000	          9.00225257	          0.00000000	
          4.24800000	          0.00000000	          0.00000000	          0.00000000	          0.00000000	          0.00000000	          0.00000000	         -2.64800103	        884.52501346	        -61.47182336	          0.25458231	          0.00000000	          0.17094784	          0.00000000	          0.00000000	          0.00000000	          0.00000000	          8.95511486	          0.00000000	
          4.24900000	          0.00000000	          0.00000000	          0.00000000	          0.00000000	          0.00000000	          0.00000000	         -2.32324926	        885.34901826	        -61.50486209	          0.25471807	          0.00000000	          0.17089040	          0.00000000	          0.00000000	          0.00000000	          0.00000000	          8.90001580	          0.00000000	
          4.25000000	          0.00000000	          0.00000000	          0.00000000	          0.00000000	          0.00000000	          0.00000000	         -2.02708345	        886.20700381	        -61.54077187	          0.25487541	          0.00000000	          0.17083243	          0.00000000	          0.00000000	          0.00000000	          0.00000000	          8.84307343	          0.00000000	
          4.25100000	          0.00000000	          0.00000000	          0.00000000	          0.00000000	          0.00000000	          0.00000000	         -1.74618262	        887.11371644	        -61.57629198	          0.25505298	          0.00000000	          0.17078238	          0.00000000	          0.00000000	          0.00000000	          0.00000000	          8.79202372	          0.00000000	
          4.25200000	          0.00000000	          0.00000000	          0.00000000	          0.00000000	          0.00000000	          0.00000000	         -1.46378725	        888.08175724	        -61.61340949	          0.25525437	          0.00000000	          0.17075308	          0.00000000	          0.00000000	          0.00000000	          0.00000000	          8.75128971	          0.00000000	
